<?xml version="1.0" encoding="UTF-8"?>
<svg width="251px" height="176px" viewBox="0 0 251 176" xmlns="http://www.w3.org/2000/svg" xmlns:xlink="http://www.w3.org/1999/xlink" version="1.1">
 <!-- Generated by Pixelmator Pro 2.0.8 -->
 <g id="pill">
  <g id="group">
   <g id="group-1">
    <path id="Path" d="M173.04 67.78 L218.81 86.74 C240.95 95.91 251.45 121.28 242.29 143.42 233.12 165.56 207.75 176.06 185.61 166.9 L139.91 147.77" fill="#96b3ee" fill-opacity="1" stroke="none"/>
   </g>
   <g id="group-2">
    <path id="Path-1" d="M207.33 105.3 C206.64 105.3 205.94 105.17 205.26 104.88 L178.82 93.93 C176.05 92.78 174.74 89.62 175.88 86.85 177.03 84.08 180.19 82.78 182.95 83.91 L209.39 94.86 C212.16 96.01 213.47 99.17 212.33 101.94 211.48 104.03 209.46 105.3 207.33 105.3 Z" fill="#a3d5f0" fill-opacity="1" stroke="none"/>
   </g>
   <g id="group-3">
    <path id="Path-2" d="M164.36 131.78 L208.31 149.99 C208.31 149.99 221.15 154.55 228.26 137.4 232.43 127.33 240.8 133.95 237.54 140.08 234.28 146.21 228.88 160.99 228.88 160.99 L203.9 170.17 148.8 147.35 Z" fill="#8797d8" fill-opacity="1" stroke="none"/>
   </g>
   <g id="group-4">
    <path id="Path-3" d="M173.063 67.767 C182.441 71.651 182.627 92.707 173.477 114.796 164.327 136.885 149.307 151.643 139.928 147.758 130.55 143.873 130.365 122.817 139.514 100.728 148.664 78.639 163.684 63.882 173.063 67.767 Z" fill="#8797d8" fill-opacity="1" stroke="none"/>
   </g>
   <g id="group-5">
    <path id="Path-4" d="M149.92 110.47 C149.23 110.47 148.53 110.34 147.85 110.05 145.08 108.9 143.77 105.74 144.91 102.97 149.6 91.63 155.96 81.69 162.81 74.96 170.8 67.11 178.87 64.31 185.54 67.08 188.31 68.23 189.62 71.39 188.48 74.16 187.33 76.93 184.17 78.23 181.41 77.1 179.67 76.38 175.78 77.44 170.42 82.7 164.59 88.42 159.1 97.11 154.94 107.13 154.06 109.21 152.04 110.47 149.92 110.47 Z" fill="#96b3ee" fill-opacity="1" stroke="none"/>
   </g>
   <g id="group-6">
    <path id="Path-5" d="M165.72 88.03 C165.72 88.03 169.55 83.46 171.94 84.45 173.95 85.28 175.64 86.01 175.64 86.01 L180.12 79 169.49 75.47 C169.49 75.47 163.9 87.47 163.87 87.55 163.84 87.61 165.72 88.03 165.72 88.03 Z" fill="#96b3ee" fill-opacity="1" stroke="none"/>
   </g>
   <g id="group-7">
    <path id="Path-6" d="M202.14 175.61 C195.93 175.61 189.62 174.42 183.53 171.89 L137.81 152.75 C135.05 151.6 133.75 148.42 134.9 145.66 136.05 142.9 139.22 141.6 141.99 142.75 L187.69 161.88 C207.01 169.88 229.26 160.67 237.27 141.33 245.28 121.99 236.06 99.74 216.72 91.73 L170.95 72.77 C168.18 71.62 166.87 68.46 168.01 65.69 169.16 62.92 172.32 61.62 175.08 62.75 L220.85 81.71 C245.71 92 257.56 120.61 247.26 145.47 239.51 164.25 221.3 175.61 202.14 175.61 Z" fill="#58568b" fill-opacity="1" stroke="none"/>
   </g>
   <g id="group-8">
    <path id="Path-7" d="M143.1 153.8 C141.27 153.8 139.51 153.46 137.83 152.76 123.55 146.85 125.45 120.47 134.49 98.66 139.18 87.32 145.54 77.38 152.39 70.65 160.38 62.8 168.45 60 175.12 62.77 189.4 68.68 187.5 95.06 178.46 116.87 173.77 128.21 167.41 138.15 160.56 144.88 154.59 150.75 148.56 153.8 143.1 153.8 Z M169.83 72.58 C167.79 72.58 164.38 74.05 159.98 78.38 154.15 84.1 148.66 92.79 144.5 102.81 135.79 123.84 137.21 140.78 141.98 142.75 143.7 143.47 147.61 142.41 152.97 137.15 158.8 131.43 164.29 122.74 168.45 112.72 177.16 91.69 175.74 74.75 170.97 72.78 170.66 72.65 170.27 72.58 169.83 72.58 Z" fill="#58568b" fill-opacity="1" stroke="none"/>
   </g>
   <g id="group-9">
    <path id="Path-8" d="M66.42 164.84 C44.28 174.01 18.91 163.5 9.74 141.36 0.57 119.22 11.08 93.85 33.22 84.68 L79.06 65.89 C79.06 65.89 93.84 79.03 103.56 102.5 113.28 125.97 112.19 145.88 112.19 145.88 Z" fill="#e8a28b" fill-opacity="1" stroke="none"/>
   </g>
   <g id="group-10">
    <path id="Path-9" d="M59.19 97.44 C57.07 97.44 55.05 96.18 54.18 94.1 53.03 91.33 54.35 88.16 57.12 87.02 L72.97 80.46 C75.73 79.31 78.9 80.63 80.04 83.4 81.19 86.17 79.87 89.34 77.1 90.48 L61.25 97.04 C60.59 97.3 59.89 97.44 59.19 97.44 Z" fill="#efc48d" fill-opacity="1" stroke="none"/>
   </g>
   <g id="group-11">
    <path id="Path-10" d="M106.23 122.25 L43.84 148.09 C43.84 148.09 31 152.65 23.89 135.5 19.72 125.43 11.9 131.78 14.61 138.18 17.34 144.61 22.99 159.2 22.99 159.2 L48.25 168.27 114 141.03 Z" fill="#dd8877" fill-opacity="1" stroke="none"/>
   </g>
   <g id="group-12">
    <path id="Path-11" d="M49.82 173.58 C43.49 173.58 37.17 172.33 31.14 169.84 19.1 164.85 9.72 155.47 4.73 143.43 -0.26 131.39 -0.26 118.12 4.73 106.08 9.72 94.03 19.1 84.66 31.14 79.67 L77 60.87 C78.91 60.09 81.1 60.46 82.66 61.83 83.3 62.4 98.49 76.07 108.56 100.42 118.64 124.75 117.64 145.31 117.59 146.17 117.47 148.25 116.18 150.08 114.25 150.88 L68.48 169.84 C62.48 172.34 56.15 173.58 49.82 173.58 Z M77.8 72.27 L35.28 89.7 C25.93 93.57 18.63 100.87 14.76 110.24 10.88 119.61 10.88 129.92 14.76 139.29 18.64 148.66 25.94 155.95 35.31 159.84 44.68 163.72 54.99 163.72 64.37 159.84 L106.8 142.27 C106.62 135.89 105.41 121.1 98.58 104.59 91.73 88.07 82.17 76.85 77.8 72.27 Z" fill="#b54b33" fill-opacity="1" stroke="none"/>
   </g>
   <g id="group-13">
    <path id="Path-12" d="M226.28 105.3 C226.28 108.52 223.67 111.13 220.45 111.13 217.23 111.13 214.62 108.52 214.62 105.3 214.62 102.08 217.23 99.47 220.45 99.47 223.67 99.47 226.28 102.08 226.28 105.3 Z" fill="#a3d5f0" fill-opacity="1" stroke="none"/>
   </g>
   <g id="group-14">
    <path id="Path-13" d="M70.73 75.16 C70.73 75.16 75.46 73.66 77.39 74.12 79.64 74.65 82.22 77.3 82.22 77.3 L78.43 70.41 69.94 73.72 Z" fill="#b54b33" fill-opacity="1" stroke="none"/>
   </g>
   <g id="group-15">
    <path id="Path-14" d="M100.1 145.02 C100.1 145.02 103.94 142.99 105.48 140.96 106.88 139.12 106.36 135.76 106.36 135.76 L108.96 143.14 100.64 146.86 Z" fill="#b54b33" fill-opacity="1" stroke="none"/>
   </g>
   <g id="group-16">
    <path id="Path-15" d="M163.39 141.9 C163.39 141.9 160.29 144.98 160.99 147.84 161.71 150.8 163.27 151.67 164.32 152.15 L162.76 155.9 152.04 151.46 C152.04 151.46 157.13 139.39 157.06 139.35 156.98 139.33 163.39 141.9 163.39 141.9 Z" fill="#58568b" fill-opacity="1" stroke="none"/>
   </g>
   <g id="group-17">
    <path id="Path-16" d="M185.46 88.67 C185.46 88.67 185.45 84.3 187.96 82.77 190.56 81.19 192.28 81.67 193.36 82.08 L194.92 78.33 184.2 73.89 C184.2 73.89 179.26 86.02 179.18 86 179.11 85.96 185.46 88.67 185.46 88.67 Z" fill="#58568b" fill-opacity="1" stroke="none"/>
   </g>
   <g id="group-18">
    <path id="Path-17" d="M92.89 52.68 C90.95 52.68 89.06 51.63 88.09 49.8 L76.43 27.74 C75.03 25.1 76.04 21.82 78.69 20.42 81.33 19.03 84.62 20.03 86.01 22.68 L97.68 44.74 C99.08 47.38 98.07 50.66 95.42 52.06 94.62 52.47 93.75 52.68 92.89 52.68 Z" fill="#58568b" fill-opacity="1" stroke="none"/>
   </g>
   <g id="group-19">
    <path id="Path-18" d="M121.62 42.86 C118.63 42.86 116.2 40.44 116.2 37.44 L116.2 5.81 C116.2 2.82 118.62 0.39 121.62 0.39 124.61 0.39 127.04 2.81 127.04 5.81 L127.04 37.44 C127.04 40.43 124.62 42.86 121.62 42.86 Z" fill="#58568b" fill-opacity="1" stroke="none"/>
   </g>
   <g id="group-20">
    <path id="Path-19" d="M149.35 53.31 C148.71 53.31 148.05 53.19 147.42 52.95 144.62 51.88 143.22 48.75 144.29 45.96 L150.83 28.82 C151.9 26.02 155.04 24.63 157.82 25.69 160.62 26.76 162.02 29.89 160.95 32.68 L154.41 49.82 C153.59 51.98 151.53 53.31 149.35 53.31 Z" fill="#58568b" fill-opacity="1" stroke="none"/>
   </g>
  </g>
 </g>
</svg>
